<svg height='300px' width='300px'  fill="#000000" xmlns="http://www.w3.org/2000/svg" viewBox="0 0 32 32" x="0px" y="0px">
  <g>
    <path d="M16,12a4,4,0,1,0,4,4A4,4,0,0,0,16,12Zm-3,4a3,3,0,0,1,3-3,3,3,0,0,1,1.73.56l-4.17,4.17A3,3,0,0,1,13,16Zm3,3a3,3,0,0,1-1.73-.56l4.17-4.17A3,3,0,0,1,19,16,3,3,0,0,1,16,19ZM10,5.5a.5.5,0,0,1-.5.5H6V9.5a.5.5,0,0,1-1,0v-4A.5.5,0,0,1,5.5,5h4A.5.5,0,0,1,10,5.5Zm17,0v4a.5.5,0,0,1-1,0V6H22.5a.5.5,0,0,1,0-1h4A.5.5,0,0,1,27,5.5Zm0,17v4a.5.5,0,0,1-.5.5h-4a.5.5,0,0,1,0-1H26V22.5a.5.5,0,0,1,1,0Zm-17,4a.5.5,0,0,1-.5.5h-4a.5.5,0,0,1-.5-.5v-4a.5.5,0,0,1,1,0V26H9.5A.5.5,0,0,1,10,26.5Z"></path>
  </g>
</svg>
